<svg xmlns="http://www.w3.org/2000/svg" version="1.1" xmlns:xlink="http://www.w3.org/1999/xlink" xmlns:svgjs="http://svgjs.com/svgjs" width="1440" height="560" preserveAspectRatio="none" viewBox="0 0 1440 560"><g mask="url(&quot;#SvgjsMask1008&quot;)" fill="none"><rect width="1440" height="560" x="0" y="0" fill="rgba(2, 53, 60, 1)"></rect><path d="M-98.65 496.64L-98.65 496.64" stroke="rgba(68, 147, 66, 1)" stroke-width="1.5"></path><path d="M-98.65 496.64L51.06 552.86" stroke="rgba(68, 147, 66, 1)" stroke-width="1.5"></path><path d="M-93.54 711.6L-93.54 711.6" stroke="rgba(68, 147, 66, 1)" stroke-width="1.5"></path><path d="M-93.54 711.6L89.69 666.31" stroke="rgba(68, 147, 66, 1)" stroke-width="1.5"></path><path d="M-93.54 711.6L51.06 552.86" stroke="rgba(68, 147, 66, 1)" stroke-width="1.5"></path><path d="M-93.54 711.6L-98.65 496.64" stroke="rgba(68, 147, 66, 1)" stroke-width="1.5"></path><path d="M-93.54 711.6L213.29 697.81" stroke="rgba(68, 147, 66, 1)" stroke-width="1.5"></path><path d="M-93.54 711.6L188.39 530.29" stroke="rgba(68, 147, 66, 1)" stroke-width="1.5"></path><path d="M102.78 358.66L102.78 358.66" stroke="rgba(68, 147, 66, 1)" stroke-width="1.5"></path><path d="M102.78 358.66L203.64 376.33" stroke="rgba(68, 147, 66, 1)" stroke-width="1.5"></path><path d="M102.78 358.66L188.39 530.29" stroke="rgba(68, 147, 66, 1)" stroke-width="1.5"></path><path d="M102.78 358.66L51.06 552.86" stroke="rgba(68, 147, 66, 1)" stroke-width="1.5"></path><path d="M51.06 552.86L51.06 552.86" stroke="rgba(68, 147, 66, 1)" stroke-width="1.5"></path><path d="M51.06 552.86L89.69 666.31" stroke="rgba(68, 147, 66, 1)" stroke-width="1.5"></path><path d="M51.06 552.86L188.39 530.29" stroke="rgba(68, 147, 66, 1)" stroke-width="1.5"></path><path d="M89.69 666.31L89.69 666.31" stroke="rgba(68, 147, 66, 1)" stroke-width="1.5"></path><path d="M89.69 666.31L213.29 697.81" stroke="rgba(68, 147, 66, 1)" stroke-width="1.5"></path><path d="M89.69 666.31L188.39 530.29" stroke="rgba(68, 147, 66, 1)" stroke-width="1.5"></path><path d="M203.64 376.33L203.64 376.33" stroke="rgba(68, 147, 66, 1)" stroke-width="1.5"></path><path d="M203.64 376.33L188.39 530.29" stroke="rgba(68, 147, 66, 1)" stroke-width="1.5"></path><path d="M203.64 376.33L381.32 376.9" stroke="rgba(68, 147, 66, 1)" stroke-width="1.5"></path><path d="M203.64 376.33L348.54 513.68" stroke="rgba(68, 147, 66, 1)" stroke-width="1.5"></path><path d="M203.64 376.33L51.06 552.86" stroke="rgba(68, 147, 66, 1)" stroke-width="1.5"></path><path d="M203.64 376.33L89.69 666.31" stroke="rgba(68, 147, 66, 1)" stroke-width="1.5"></path><path d="M188.39 530.29L188.39 530.29" stroke="rgba(68, 147, 66, 1)" stroke-width="1.5"></path><path d="M213.29 697.81L213.29 697.81" stroke="rgba(68, 147, 66, 1)" stroke-width="1.5"></path><path d="M213.29 697.81L188.39 530.29" stroke="rgba(68, 147, 66, 1)" stroke-width="1.5"></path><path d="M381.32 376.9L381.32 376.9" stroke="rgba(68, 147, 66, 1)" stroke-width="1.5"></path><path d="M381.32 376.9L348.54 513.68" stroke="rgba(68, 147, 66, 1)" stroke-width="1.5"></path><path d="M381.32 376.9L546.46 390.93" stroke="rgba(68, 147, 66, 1)" stroke-width="1.5"></path><path d="M348.54 513.68L348.54 513.68" stroke="rgba(68, 147, 66, 1)" stroke-width="1.5"></path><path d="M348.54 513.68L389.17 660.72" stroke="rgba(68, 147, 66, 1)" stroke-width="1.5"></path><path d="M348.54 513.68L188.39 530.29" stroke="rgba(68, 147, 66, 1)" stroke-width="1.5"></path><path d="M389.17 660.72L389.17 660.72" stroke="rgba(68, 147, 66, 1)" stroke-width="1.5"></path><path d="M389.17 660.72L213.29 697.81" stroke="rgba(68, 147, 66, 1)" stroke-width="1.5"></path><path d="M389.17 660.72L532.04 505.17" stroke="rgba(68, 147, 66, 1)" stroke-width="1.5"></path><path d="M546.46 390.93L546.46 390.93" stroke="rgba(68, 147, 66, 1)" stroke-width="1.5"></path><path d="M546.46 390.93L532.04 505.17" stroke="rgba(68, 147, 66, 1)" stroke-width="1.5"></path><path d="M546.46 390.93L677 362.53" stroke="rgba(68, 147, 66, 1)" stroke-width="1.5"></path><path d="M546.46 390.93L348.54 513.68" stroke="rgba(68, 147, 66, 1)" stroke-width="1.5"></path><path d="M546.46 390.93L804.51 514.36" stroke="rgba(68, 147, 66, 1)" stroke-width="1.5"></path><path d="M532.04 505.17L532.04 505.17" stroke="rgba(68, 147, 66, 1)" stroke-width="1.5"></path><path d="M532.04 505.17L348.54 513.68" stroke="rgba(68, 147, 66, 1)" stroke-width="1.5"></path><path d="M677 362.53L677 362.53" stroke="rgba(68, 147, 66, 1)" stroke-width="1.5"></path><path d="M677 362.53L848.67 383.16" stroke="rgba(68, 147, 66, 1)" stroke-width="1.5"></path><path d="M646.06 669.72L646.06 669.72" stroke="rgba(68, 147, 66, 1)" stroke-width="1.5"></path><path d="M646.06 669.72L810.4 679.7" stroke="rgba(68, 147, 66, 1)" stroke-width="1.5"></path><path d="M646.06 669.72L532.04 505.17" stroke="rgba(68, 147, 66, 1)" stroke-width="1.5"></path><path d="M646.06 669.72L804.51 514.36" stroke="rgba(68, 147, 66, 1)" stroke-width="1.5"></path><path d="M646.06 669.72L389.17 660.72" stroke="rgba(68, 147, 66, 1)" stroke-width="1.5"></path><path d="M811.68 205.07L811.68 205.07" stroke="rgba(68, 147, 66, 1)" stroke-width="1.5"></path><path d="M811.68 205.07L848.67 383.16" stroke="rgba(68, 147, 66, 1)" stroke-width="1.5"></path><path d="M811.68 205.07L966 103.92" stroke="rgba(68, 147, 66, 1)" stroke-width="1.5"></path><path d="M811.68 205.07L1008.22 194.82" stroke="rgba(68, 147, 66, 1)" stroke-width="1.5"></path><path d="M811.68 205.07L677 362.53" stroke="rgba(68, 147, 66, 1)" stroke-width="1.5"></path><path d="M811.68 205.07L975.34 409.61" stroke="rgba(68, 147, 66, 1)" stroke-width="1.5"></path><path d="M848.67 383.16L848.67 383.16" stroke="rgba(68, 147, 66, 1)" stroke-width="1.5"></path><path d="M848.67 383.16L975.34 409.61" stroke="rgba(68, 147, 66, 1)" stroke-width="1.5"></path><path d="M848.67 383.16L804.51 514.36" stroke="rgba(68, 147, 66, 1)" stroke-width="1.5"></path><path d="M848.67 383.16L964.49 518.76" stroke="rgba(68, 147, 66, 1)" stroke-width="1.5"></path><path d="M804.51 514.36L804.51 514.36" stroke="rgba(68, 147, 66, 1)" stroke-width="1.5"></path><path d="M804.51 514.36L964.49 518.76" stroke="rgba(68, 147, 66, 1)" stroke-width="1.5"></path><path d="M810.4 679.7L810.4 679.7" stroke="rgba(68, 147, 66, 1)" stroke-width="1.5"></path><path d="M810.4 679.7L804.51 514.36" stroke="rgba(68, 147, 66, 1)" stroke-width="1.5"></path><path d="M810.4 679.7L1001.7 712.36" stroke="rgba(68, 147, 66, 1)" stroke-width="1.5"></path><path d="M810.4 679.7L964.49 518.76" stroke="rgba(68, 147, 66, 1)" stroke-width="1.5"></path><path d="M1012.2 -88.16L1012.2 -88.16" stroke="rgba(68, 147, 66, 1)" stroke-width="1.5"></path><path d="M1012.2 -88.16L1134.86 51.59" stroke="rgba(68, 147, 66, 1)" stroke-width="1.5"></path><path d="M1012.2 -88.16L966 103.92" stroke="rgba(68, 147, 66, 1)" stroke-width="1.5"></path><path d="M1012.2 -88.16L1008.22 194.82" stroke="rgba(68, 147, 66, 1)" stroke-width="1.5"></path><path d="M966 103.92L966 103.92" stroke="rgba(68, 147, 66, 1)" stroke-width="1.5"></path><path d="M966 103.92L1008.22 194.82" stroke="rgba(68, 147, 66, 1)" stroke-width="1.5"></path><path d="M966 103.92L1134.86 51.59" stroke="rgba(68, 147, 66, 1)" stroke-width="1.5"></path><path d="M1008.22 194.82L1008.22 194.82" stroke="rgba(68, 147, 66, 1)" stroke-width="1.5"></path><path d="M1008.22 194.82L1121.84 212.73" stroke="rgba(68, 147, 66, 1)" stroke-width="1.5"></path><path d="M1008.22 194.82L1134.86 51.59" stroke="rgba(68, 147, 66, 1)" stroke-width="1.5"></path><path d="M1008.22 194.82L1111.58 384.09" stroke="rgba(68, 147, 66, 1)" stroke-width="1.5"></path><path d="M1008.22 194.82L975.34 409.61" stroke="rgba(68, 147, 66, 1)" stroke-width="1.5"></path><path d="M975.34 409.61L975.34 409.61" stroke="rgba(68, 147, 66, 1)" stroke-width="1.5"></path><path d="M975.34 409.61L964.49 518.76" stroke="rgba(68, 147, 66, 1)" stroke-width="1.5"></path><path d="M975.34 409.61L1111.58 384.09" stroke="rgba(68, 147, 66, 1)" stroke-width="1.5"></path><path d="M975.34 409.61L1143.33 494.67" stroke="rgba(68, 147, 66, 1)" stroke-width="1.5"></path><path d="M975.34 409.61L804.51 514.36" stroke="rgba(68, 147, 66, 1)" stroke-width="1.5"></path><path d="M964.49 518.76L964.49 518.76" stroke="rgba(68, 147, 66, 1)" stroke-width="1.5"></path><path d="M1001.7 712.36L1001.7 712.36" stroke="rgba(68, 147, 66, 1)" stroke-width="1.5"></path><path d="M1001.7 712.36L1148.39 672.45" stroke="rgba(68, 147, 66, 1)" stroke-width="1.5"></path><path d="M1001.7 712.36L964.49 518.76" stroke="rgba(68, 147, 66, 1)" stroke-width="1.5"></path><path d="M1134.86 51.59L1134.86 51.59" stroke="rgba(68, 147, 66, 1)" stroke-width="1.5"></path><path d="M1134.86 51.59L1121.84 212.73" stroke="rgba(68, 147, 66, 1)" stroke-width="1.5"></path><path d="M1134.86 51.59L1303.47 89.7" stroke="rgba(68, 147, 66, 1)" stroke-width="1.5"></path><path d="M1134.86 51.59L1311.19 -73.77" stroke="rgba(68, 147, 66, 1)" stroke-width="1.5"></path><path d="M1121.84 212.73L1121.84 212.73" stroke="rgba(68, 147, 66, 1)" stroke-width="1.5"></path><path d="M1121.84 212.73L1111.58 384.09" stroke="rgba(68, 147, 66, 1)" stroke-width="1.5"></path><path d="M1111.58 384.09L1111.58 384.09" stroke="rgba(68, 147, 66, 1)" stroke-width="1.5"></path><path d="M1111.58 384.09L1143.33 494.67" stroke="rgba(68, 147, 66, 1)" stroke-width="1.5"></path><path d="M1111.58 384.09L1268.73 341.98" stroke="rgba(68, 147, 66, 1)" stroke-width="1.5"></path><path d="M1111.58 384.09L964.49 518.76" stroke="rgba(68, 147, 66, 1)" stroke-width="1.5"></path><path d="M1143.33 494.67L1143.33 494.67" stroke="rgba(68, 147, 66, 1)" stroke-width="1.5"></path><path d="M1143.33 494.67L1264.3 543.94" stroke="rgba(68, 147, 66, 1)" stroke-width="1.5"></path><path d="M1143.33 494.67L1148.39 672.45" stroke="rgba(68, 147, 66, 1)" stroke-width="1.5"></path><path d="M1143.33 494.67L964.49 518.76" stroke="rgba(68, 147, 66, 1)" stroke-width="1.5"></path><path d="M1148.39 672.45L1148.39 672.45" stroke="rgba(68, 147, 66, 1)" stroke-width="1.5"></path><path d="M1148.39 672.45L1273.76 659.59" stroke="rgba(68, 147, 66, 1)" stroke-width="1.5"></path><path d="M1148.39 672.45L1264.3 543.94" stroke="rgba(68, 147, 66, 1)" stroke-width="1.5"></path><path d="M1148.39 672.45L964.49 518.76" stroke="rgba(68, 147, 66, 1)" stroke-width="1.5"></path><path d="M1311.19 -73.77L1311.19 -73.77" stroke="rgba(68, 147, 66, 1)" stroke-width="1.5"></path><path d="M1311.19 -73.77L1449.68 -110.7" stroke="rgba(68, 147, 66, 1)" stroke-width="1.5"></path><path d="M1311.19 -73.77L1303.47 89.7" stroke="rgba(68, 147, 66, 1)" stroke-width="1.5"></path><path d="M1311.19 -73.77L1429.66 58.53" stroke="rgba(68, 147, 66, 1)" stroke-width="1.5"></path><path d="M1303.47 89.7L1303.47 89.7" stroke="rgba(68, 147, 66, 1)" stroke-width="1.5"></path><path d="M1303.47 89.7L1299.85 195.81" stroke="rgba(68, 147, 66, 1)" stroke-width="1.5"></path><path d="M1303.47 89.7L1429.66 58.53" stroke="rgba(68, 147, 66, 1)" stroke-width="1.5"></path><path d="M1299.85 195.81L1299.85 195.81" stroke="rgba(68, 147, 66, 1)" stroke-width="1.5"></path><path d="M1299.85 195.81L1395.91 230.24" stroke="rgba(68, 147, 66, 1)" stroke-width="1.5"></path><path d="M1299.85 195.81L1268.73 341.98" stroke="rgba(68, 147, 66, 1)" stroke-width="1.5"></path><path d="M1299.85 195.81L1121.84 212.73" stroke="rgba(68, 147, 66, 1)" stroke-width="1.5"></path><path d="M1299.85 195.81L1429.66 58.53" stroke="rgba(68, 147, 66, 1)" stroke-width="1.5"></path><path d="M1268.73 341.98L1268.73 341.98" stroke="rgba(68, 147, 66, 1)" stroke-width="1.5"></path><path d="M1264.3 543.94L1264.3 543.94" stroke="rgba(68, 147, 66, 1)" stroke-width="1.5"></path><path d="M1264.3 543.94L1273.76 659.59" stroke="rgba(68, 147, 66, 1)" stroke-width="1.5"></path><path d="M1273.76 659.59L1273.76 659.59" stroke="rgba(68, 147, 66, 1)" stroke-width="1.5"></path><path d="M1273.76 659.59L1388.02 708.58" stroke="rgba(68, 147, 66, 1)" stroke-width="1.5"></path><path d="M1273.76 659.59L1143.33 494.67" stroke="rgba(68, 147, 66, 1)" stroke-width="1.5"></path><path d="M1449.68 -110.7L1449.68 -110.7" stroke="rgba(68, 147, 66, 1)" stroke-width="1.5"></path><path d="M1449.68 -110.7L1589.24 -50.71" stroke="rgba(68, 147, 66, 1)" stroke-width="1.5"></path><path d="M1449.68 -110.7L1429.66 58.53" stroke="rgba(68, 147, 66, 1)" stroke-width="1.5"></path><path d="M1429.66 58.53L1429.66 58.53" stroke="rgba(68, 147, 66, 1)" stroke-width="1.5"></path><path d="M1429.66 58.53L1595.14 106.2" stroke="rgba(68, 147, 66, 1)" stroke-width="1.5"></path><path d="M1395.91 230.24L1395.91 230.24" stroke="rgba(68, 147, 66, 1)" stroke-width="1.5"></path><path d="M1395.91 230.24L1303.47 89.7" stroke="rgba(68, 147, 66, 1)" stroke-width="1.5"></path><path d="M1395.91 230.24L1268.73 341.98" stroke="rgba(68, 147, 66, 1)" stroke-width="1.5"></path><path d="M1395.91 230.24L1429.66 58.53" stroke="rgba(68, 147, 66, 1)" stroke-width="1.5"></path><path d="M1449.74 534.43L1449.74 534.43" stroke="rgba(68, 147, 66, 1)" stroke-width="1.5"></path><path d="M1449.74 534.43L1549.05 556.21" stroke="rgba(68, 147, 66, 1)" stroke-width="1.5"></path><path d="M1449.74 534.43L1388.02 708.58" stroke="rgba(68, 147, 66, 1)" stroke-width="1.5"></path><path d="M1388.02 708.58L1388.02 708.58" stroke="rgba(68, 147, 66, 1)" stroke-width="1.5"></path><path d="M1388.02 708.58L1538.94 699.98" stroke="rgba(68, 147, 66, 1)" stroke-width="1.5"></path><path d="M1388.02 708.58L1264.3 543.94" stroke="rgba(68, 147, 66, 1)" stroke-width="1.5"></path><path d="M1388.02 708.58L1549.05 556.21" stroke="rgba(68, 147, 66, 1)" stroke-width="1.5"></path><path d="M1388.02 708.58L1148.39 672.45" stroke="rgba(68, 147, 66, 1)" stroke-width="1.5"></path><path d="M1589.24 -50.71L1589.24 -50.71" stroke="rgba(68, 147, 66, 1)" stroke-width="1.5"></path><path d="M1589.24 -50.71L1595.14 106.2" stroke="rgba(68, 147, 66, 1)" stroke-width="1.5"></path><path d="M1595.14 106.2L1595.14 106.2" stroke="rgba(68, 147, 66, 1)" stroke-width="1.5"></path><path d="M1595.14 106.2L1591.99 248.13" stroke="rgba(68, 147, 66, 1)" stroke-width="1.5"></path><path d="M1591.99 248.13L1591.99 248.13" stroke="rgba(68, 147, 66, 1)" stroke-width="1.5"></path><path d="M1591.99 248.13L1612.13 351.38" stroke="rgba(68, 147, 66, 1)" stroke-width="1.5"></path><path d="M1591.99 248.13L1395.91 230.24" stroke="rgba(68, 147, 66, 1)" stroke-width="1.5"></path><path d="M1591.99 248.13L1429.66 58.53" stroke="rgba(68, 147, 66, 1)" stroke-width="1.5"></path><path d="M1612.13 351.38L1612.13 351.38" stroke="rgba(68, 147, 66, 1)" stroke-width="1.5"></path><path d="M1612.13 351.38L1549.05 556.21" stroke="rgba(68, 147, 66, 1)" stroke-width="1.5"></path><path d="M1612.13 351.38L1449.74 534.43" stroke="rgba(68, 147, 66, 1)" stroke-width="1.5"></path><path d="M1612.13 351.38L1595.14 106.2" stroke="rgba(68, 147, 66, 1)" stroke-width="1.5"></path><path d="M1612.13 351.38L1395.91 230.24" stroke="rgba(68, 147, 66, 1)" stroke-width="1.5"></path><path d="M1612.13 351.38L1268.73 341.98" stroke="rgba(68, 147, 66, 1)" stroke-width="1.5"></path><path d="M1549.05 556.21L1549.05 556.21" stroke="rgba(68, 147, 66, 1)" stroke-width="1.5"></path><path d="M1549.05 556.21L1538.94 699.98" stroke="rgba(68, 147, 66, 1)" stroke-width="1.5"></path><path d="M1549.05 556.21L1264.3 543.94" stroke="rgba(68, 147, 66, 1)" stroke-width="1.5"></path><path d="M1538.94 699.98L1538.94 699.98" stroke="rgba(68, 147, 66, 1)" stroke-width="1.5"></path><path d="M1538.94 699.98L1449.74 534.43" stroke="rgba(68, 147, 66, 1)" stroke-width="1.5"></path><path d="M1538.94 699.98L1273.76 659.59" stroke="rgba(68, 147, 66, 1)" stroke-width="1.5"></path><path d="M1538.94 699.98L1264.3 543.94" stroke="rgba(68, 147, 66, 1)" stroke-width="1.5"></path><path d="M1538.94 699.98L1612.13 351.38" stroke="rgba(68, 147, 66, 1)" stroke-width="1.5"></path><circle r="5" cx="-98.65" cy="496.64" fill="rgba(68, 147, 66, 1)"></circle><circle r="5" cx="-93.54" cy="711.6" fill="rgba(68, 147, 66, 1)"></circle><circle r="5" cx="102.78" cy="358.66" fill="rgba(68, 147, 66, 1)"></circle><circle r="5" cx="51.06" cy="552.86" fill="rgba(68, 147, 66, 1)"></circle><circle r="5" cx="89.69" cy="666.31" fill="rgba(68, 147, 66, 1)"></circle><circle r="5" cx="203.64" cy="376.33" fill="rgba(68, 147, 66, 1)"></circle><circle r="5" cx="188.39" cy="530.29" fill="rgba(68, 147, 66, 1)"></circle><circle r="5" cx="213.29" cy="697.81" fill="rgba(68, 147, 66, 1)"></circle><circle r="5" cx="381.32" cy="376.9" fill="rgba(68, 147, 66, 1)"></circle><circle r="5" cx="348.54" cy="513.68" fill="rgba(68, 147, 66, 1)"></circle><circle r="5" cx="389.17" cy="660.72" fill="rgba(68, 147, 66, 1)"></circle><circle r="5" cx="546.46" cy="390.93" fill="rgba(68, 147, 66, 1)"></circle><circle r="5" cx="532.04" cy="505.17" fill="rgba(68, 147, 66, 1)"></circle><circle r="5" cx="677" cy="362.53" fill="rgba(68, 147, 66, 1)"></circle><circle r="5" cx="646.06" cy="669.72" fill="rgba(68, 147, 66, 1)"></circle><circle r="5" cx="811.68" cy="205.07" fill="rgba(68, 147, 66, 1)"></circle><circle r="5" cx="848.67" cy="383.16" fill="rgba(68, 147, 66, 1)"></circle><circle r="5" cx="804.51" cy="514.36" fill="rgba(68, 147, 66, 1)"></circle><circle r="5" cx="810.4" cy="679.7" fill="rgba(68, 147, 66, 1)"></circle><circle r="5" cx="1012.2" cy="-88.16" fill="rgba(68, 147, 66, 1)"></circle><circle r="5" cx="966" cy="103.92" fill="rgba(68, 147, 66, 1)"></circle><circle r="5" cx="1008.22" cy="194.82" fill="rgba(68, 147, 66, 1)"></circle><circle r="5" cx="975.34" cy="409.61" fill="rgba(68, 147, 66, 1)"></circle><circle r="5" cx="964.49" cy="518.76" fill="rgba(68, 147, 66, 1)"></circle><circle r="5" cx="1001.7" cy="712.36" fill="rgba(68, 147, 66, 1)"></circle><circle r="5" cx="1134.86" cy="51.59" fill="rgba(68, 147, 66, 1)"></circle><circle r="5" cx="1121.84" cy="212.73" fill="rgba(68, 147, 66, 1)"></circle><circle r="5" cx="1111.58" cy="384.09" fill="rgba(68, 147, 66, 1)"></circle><circle r="5" cx="1143.33" cy="494.67" fill="rgba(68, 147, 66, 1)"></circle><circle r="5" cx="1148.39" cy="672.45" fill="rgba(68, 147, 66, 1)"></circle><circle r="5" cx="1311.19" cy="-73.77" fill="rgba(68, 147, 66, 1)"></circle><circle r="5" cx="1303.47" cy="89.7" fill="rgba(68, 147, 66, 1)"></circle><circle r="5" cx="1299.85" cy="195.81" fill="rgba(68, 147, 66, 1)"></circle><circle r="5" cx="1268.73" cy="341.98" fill="rgba(68, 147, 66, 1)"></circle><circle r="5" cx="1264.3" cy="543.94" fill="rgba(68, 147, 66, 1)"></circle><circle r="5" cx="1273.76" cy="659.59" fill="rgba(68, 147, 66, 1)"></circle><circle r="5" cx="1449.68" cy="-110.7" fill="rgba(68, 147, 66, 1)"></circle><circle r="5" cx="1429.66" cy="58.53" fill="rgba(68, 147, 66, 1)"></circle><circle r="5" cx="1395.91" cy="230.24" fill="rgba(68, 147, 66, 1)"></circle><circle r="5" cx="1449.74" cy="534.43" fill="rgba(68, 147, 66, 1)"></circle><circle r="5" cx="1388.02" cy="708.58" fill="rgba(68, 147, 66, 1)"></circle><circle r="5" cx="1589.24" cy="-50.71" fill="rgba(68, 147, 66, 1)"></circle><circle r="5" cx="1595.14" cy="106.2" fill="rgba(68, 147, 66, 1)"></circle><circle r="5" cx="1591.99" cy="248.13" fill="rgba(68, 147, 66, 1)"></circle><circle r="5" cx="1612.13" cy="351.38" fill="rgba(68, 147, 66, 1)"></circle><circle r="5" cx="1549.05" cy="556.21" fill="rgba(68, 147, 66, 1)"></circle><circle r="5" cx="1538.94" cy="699.98" fill="rgba(68, 147, 66, 1)"></circle><path d="M-106.04 693.95L-106.04 693.95" stroke="hsl(156.70000000000005, 58.4%, 56.3%)" stroke-width="1.5"></path><path d="M-106.04 693.95L106.25 681.73" stroke="hsl(156.70000000000005, 58.4%, 56.3%)" stroke-width="1.5"></path><path d="M-106.04 693.95L39.32 521.85" stroke="hsl(156.70000000000005, 58.4%, 56.3%)" stroke-width="1.5"></path><path d="M506.76 515.19L506.76 515.19" stroke="hsl(156.70000000000005, 58.4%, 56.3%)" stroke-width="1.5"></path><path d="M506.76 515.19L373.71 560.19" stroke="hsl(156.70000000000005, 58.4%, 56.3%)" stroke-width="1.5"></path><path d="M506.76 515.19L494.66 671.34" stroke="hsl(156.70000000000005, 58.4%, 56.3%)" stroke-width="1.5"></path><path d="M506.76 515.19L645.09 407.09" stroke="hsl(156.70000000000005, 58.4%, 56.3%)" stroke-width="1.5"></path><path d="M506.76 515.19L412.22 696.63" stroke="hsl(156.70000000000005, 58.4%, 56.3%)" stroke-width="1.5"></path><path d="M828.94 344.06L828.94 344.06" stroke="hsl(156.70000000000005, 58.4%, 56.3%)" stroke-width="1.5"></path><path d="M828.94 344.06L971.74 252.69" stroke="hsl(156.70000000000005, 58.4%, 56.3%)" stroke-width="1.5"></path><path d="M828.94 344.06L788.22 515.5" stroke="hsl(156.70000000000005, 58.4%, 56.3%)" stroke-width="1.5"></path><path d="M828.94 344.06L1000.17 402.12" stroke="hsl(156.70000000000005, 58.4%, 56.3%)" stroke-width="1.5"></path><path d="M828.94 344.06L645.09 407.09" stroke="hsl(156.70000000000005, 58.4%, 56.3%)" stroke-width="1.5"></path><path d="M1117.84 236.61L1117.84 236.61" stroke="hsl(156.70000000000005, 58.4%, 56.3%)" stroke-width="1.5"></path><path d="M1117.84 236.61L1139.29 351.28" stroke="hsl(156.70000000000005, 58.4%, 56.3%)" stroke-width="1.5"></path><path d="M1117.84 236.61L971.74 252.69" stroke="hsl(156.70000000000005, 58.4%, 56.3%)" stroke-width="1.5"></path><path d="M1117.84 236.61L1280.21 350.17" stroke="hsl(156.70000000000005, 58.4%, 56.3%)" stroke-width="1.5"></path><path d="M1117.84 236.61L1000.17 402.12" stroke="hsl(156.70000000000005, 58.4%, 56.3%)" stroke-width="1.5"></path><path d="M1309.88 90.68L1309.88 90.68" stroke="hsl(156.70000000000005, 58.4%, 56.3%)" stroke-width="1.5"></path><path d="M1309.88 90.68L1435.09 79.03" stroke="hsl(156.70000000000005, 58.4%, 56.3%)" stroke-width="1.5"></path><path d="M1309.88 90.68L1283.29 -61" stroke="hsl(156.70000000000005, 58.4%, 56.3%)" stroke-width="1.5"></path><path d="M1309.88 90.68L1428.45 261.74" stroke="hsl(156.70000000000005, 58.4%, 56.3%)" stroke-width="1.5"></path><path d="M1309.88 90.68L1457.87 -95.07" stroke="hsl(156.70000000000005, 58.4%, 56.3%)" stroke-width="1.5"></path><path d="M1283.66 553.88L1283.66 553.88" stroke="hsl(156.70000000000005, 58.4%, 56.3%)" stroke-width="1.5"></path><path d="M1283.66 553.88L1312.43 671.44" stroke="hsl(156.70000000000005, 58.4%, 56.3%)" stroke-width="1.5"></path><path d="M1283.66 553.88L1115.64 512.96" stroke="hsl(156.70000000000005, 58.4%, 56.3%)" stroke-width="1.5"></path><path d="M1443.19 407.4L1443.19 407.4" stroke="hsl(156.70000000000005, 58.4%, 56.3%)" stroke-width="1.5"></path><path d="M1443.19 407.4L1567.22 343.94" stroke="hsl(156.70000000000005, 58.4%, 56.3%)" stroke-width="1.5"></path><path d="M1443.19 407.4L1428.45 261.74" stroke="hsl(156.70000000000005, 58.4%, 56.3%)" stroke-width="1.5"></path><path d="M1443.19 407.4L1280.21 350.17" stroke="hsl(156.70000000000005, 58.4%, 56.3%)" stroke-width="1.5"></path><path d="M39.32 521.85L39.32 521.85" stroke="hsl(156.70000000000005, 58.4%, 56.3%)" stroke-width="1.5"></path><path d="M39.32 521.85L106.25 681.73" stroke="hsl(156.70000000000005, 58.4%, 56.3%)" stroke-width="1.5"></path><path d="M39.32 521.85L253.71 513.06" stroke="hsl(156.70000000000005, 58.4%, 56.3%)" stroke-width="1.5"></path><path d="M39.32 521.85L232.45 637.7" stroke="hsl(156.70000000000005, 58.4%, 56.3%)" stroke-width="1.5"></path><path d="M106.25 681.73L106.25 681.73" stroke="hsl(156.70000000000005, 58.4%, 56.3%)" stroke-width="1.5"></path><path d="M106.25 681.73L232.45 637.7" stroke="hsl(156.70000000000005, 58.4%, 56.3%)" stroke-width="1.5"></path><path d="M253.71 513.06L253.71 513.06" stroke="hsl(156.70000000000005, 58.4%, 56.3%)" stroke-width="1.5"></path><path d="M253.71 513.06L232.45 637.7" stroke="hsl(156.70000000000005, 58.4%, 56.3%)" stroke-width="1.5"></path><path d="M253.71 513.06L373.71 560.19" stroke="hsl(156.70000000000005, 58.4%, 56.3%)" stroke-width="1.5"></path><path d="M253.71 513.06L106.25 681.73" stroke="hsl(156.70000000000005, 58.4%, 56.3%)" stroke-width="1.5"></path><path d="M232.45 637.7L232.45 637.7" stroke="hsl(156.70000000000005, 58.4%, 56.3%)" stroke-width="1.5"></path><path d="M232.45 637.7L373.71 560.19" stroke="hsl(156.70000000000005, 58.4%, 56.3%)" stroke-width="1.5"></path><path d="M232.45 637.7L412.22 696.63" stroke="hsl(156.70000000000005, 58.4%, 56.3%)" stroke-width="1.5"></path><path d="M373.71 560.19L373.71 560.19" stroke="hsl(156.70000000000005, 58.4%, 56.3%)" stroke-width="1.5"></path><path d="M412.22 696.63L412.22 696.63" stroke="hsl(156.70000000000005, 58.4%, 56.3%)" stroke-width="1.5"></path><path d="M412.22 696.63L494.66 671.34" stroke="hsl(156.70000000000005, 58.4%, 56.3%)" stroke-width="1.5"></path><path d="M412.22 696.63L373.71 560.19" stroke="hsl(156.70000000000005, 58.4%, 56.3%)" stroke-width="1.5"></path><path d="M412.22 696.63L253.71 513.06" stroke="hsl(156.70000000000005, 58.4%, 56.3%)" stroke-width="1.5"></path><path d="M494.66 671.34L494.66 671.34" stroke="hsl(156.70000000000005, 58.4%, 56.3%)" stroke-width="1.5"></path><path d="M494.66 671.34L373.71 560.19" stroke="hsl(156.70000000000005, 58.4%, 56.3%)" stroke-width="1.5"></path><path d="M645.09 407.09L645.09 407.09" stroke="hsl(156.70000000000005, 58.4%, 56.3%)" stroke-width="1.5"></path><path d="M645.09 407.09L788.22 515.5" stroke="hsl(156.70000000000005, 58.4%, 56.3%)" stroke-width="1.5"></path><path d="M645.09 407.09L659.6 697.88" stroke="hsl(156.70000000000005, 58.4%, 56.3%)" stroke-width="1.5"></path><path d="M645.09 407.09L802.02 656.4" stroke="hsl(156.70000000000005, 58.4%, 56.3%)" stroke-width="1.5"></path><path d="M645.09 407.09L494.66 671.34" stroke="hsl(156.70000000000005, 58.4%, 56.3%)" stroke-width="1.5"></path><path d="M659.6 697.88L659.6 697.88" stroke="hsl(156.70000000000005, 58.4%, 56.3%)" stroke-width="1.5"></path><path d="M659.6 697.88L802.02 656.4" stroke="hsl(156.70000000000005, 58.4%, 56.3%)" stroke-width="1.5"></path><path d="M659.6 697.88L494.66 671.34" stroke="hsl(156.70000000000005, 58.4%, 56.3%)" stroke-width="1.5"></path><path d="M659.6 697.88L788.22 515.5" stroke="hsl(156.70000000000005, 58.4%, 56.3%)" stroke-width="1.5"></path><path d="M659.6 697.88L506.76 515.19" stroke="hsl(156.70000000000005, 58.4%, 56.3%)" stroke-width="1.5"></path><path d="M788.22 515.5L788.22 515.5" stroke="hsl(156.70000000000005, 58.4%, 56.3%)" stroke-width="1.5"></path><path d="M788.22 515.5L802.02 656.4" stroke="hsl(156.70000000000005, 58.4%, 56.3%)" stroke-width="1.5"></path><path d="M802.02 656.4L802.02 656.4" stroke="hsl(156.70000000000005, 58.4%, 56.3%)" stroke-width="1.5"></path><path d="M802.02 656.4L989.77 682.41" stroke="hsl(156.70000000000005, 58.4%, 56.3%)" stroke-width="1.5"></path><path d="M802.02 656.4L981.68 521.66" stroke="hsl(156.70000000000005, 58.4%, 56.3%)" stroke-width="1.5"></path><path d="M971.74 252.69L971.74 252.69" stroke="hsl(156.70000000000005, 58.4%, 56.3%)" stroke-width="1.5"></path><path d="M971.74 252.69L1000.17 402.12" stroke="hsl(156.70000000000005, 58.4%, 56.3%)" stroke-width="1.5"></path><path d="M1000.17 402.12L1000.17 402.12" stroke="hsl(156.70000000000005, 58.4%, 56.3%)" stroke-width="1.5"></path><path d="M1000.17 402.12L981.68 521.66" stroke="hsl(156.70000000000005, 58.4%, 56.3%)" stroke-width="1.5"></path><path d="M1000.17 402.12L1139.29 351.28" stroke="hsl(156.70000000000005, 58.4%, 56.3%)" stroke-width="1.5"></path><path d="M1000.17 402.12L1115.64 512.96" stroke="hsl(156.70000000000005, 58.4%, 56.3%)" stroke-width="1.5"></path><path d="M981.68 521.66L981.68 521.66" stroke="hsl(156.70000000000005, 58.4%, 56.3%)" stroke-width="1.5"></path><path d="M981.68 521.66L1115.64 512.96" stroke="hsl(156.70000000000005, 58.4%, 56.3%)" stroke-width="1.5"></path><path d="M981.68 521.66L989.77 682.41" stroke="hsl(156.70000000000005, 58.4%, 56.3%)" stroke-width="1.5"></path><path d="M989.77 682.41L989.77 682.41" stroke="hsl(156.70000000000005, 58.4%, 56.3%)" stroke-width="1.5"></path><path d="M989.77 682.41L1115.64 512.96" stroke="hsl(156.70000000000005, 58.4%, 56.3%)" stroke-width="1.5"></path><path d="M989.77 682.41L788.22 515.5" stroke="hsl(156.70000000000005, 58.4%, 56.3%)" stroke-width="1.5"></path><path d="M989.77 682.41L1000.17 402.12" stroke="hsl(156.70000000000005, 58.4%, 56.3%)" stroke-width="1.5"></path><path d="M1139.29 351.28L1139.29 351.28" stroke="hsl(156.70000000000005, 58.4%, 56.3%)" stroke-width="1.5"></path><path d="M1139.29 351.28L1280.21 350.17" stroke="hsl(156.70000000000005, 58.4%, 56.3%)" stroke-width="1.5"></path><path d="M1139.29 351.28L1115.64 512.96" stroke="hsl(156.70000000000005, 58.4%, 56.3%)" stroke-width="1.5"></path><path d="M1139.29 351.28L971.74 252.69" stroke="hsl(156.70000000000005, 58.4%, 56.3%)" stroke-width="1.5"></path><path d="M1139.29 351.28L981.68 521.66" stroke="hsl(156.70000000000005, 58.4%, 56.3%)" stroke-width="1.5"></path><path d="M1115.64 512.96L1115.64 512.96" stroke="hsl(156.70000000000005, 58.4%, 56.3%)" stroke-width="1.5"></path><path d="M1283.29 -61L1283.29 -61" stroke="hsl(156.70000000000005, 58.4%, 56.3%)" stroke-width="1.5"></path><path d="M1283.29 -61L1457.87 -95.07" stroke="hsl(156.70000000000005, 58.4%, 56.3%)" stroke-width="1.5"></path><path d="M1280.21 350.17L1280.21 350.17" stroke="hsl(156.70000000000005, 58.4%, 56.3%)" stroke-width="1.5"></path><path d="M1280.21 350.17L1428.45 261.74" stroke="hsl(156.70000000000005, 58.4%, 56.3%)" stroke-width="1.5"></path><path d="M1312.43 671.44L1312.43 671.44" stroke="hsl(156.70000000000005, 58.4%, 56.3%)" stroke-width="1.5"></path><path d="M1312.43 671.44L1419.12 692.9" stroke="hsl(156.70000000000005, 58.4%, 56.3%)" stroke-width="1.5"></path><path d="M1312.43 671.44L1115.64 512.96" stroke="hsl(156.70000000000005, 58.4%, 56.3%)" stroke-width="1.5"></path><path d="M1312.43 671.44L1577.83 653.35" stroke="hsl(156.70000000000005, 58.4%, 56.3%)" stroke-width="1.5"></path><path d="M1312.43 671.44L1443.19 407.4" stroke="hsl(156.70000000000005, 58.4%, 56.3%)" stroke-width="1.5"></path><path d="M1457.87 -95.07L1457.87 -95.07" stroke="hsl(156.70000000000005, 58.4%, 56.3%)" stroke-width="1.5"></path><path d="M1457.87 -95.07L1561.12 -46.21" stroke="hsl(156.70000000000005, 58.4%, 56.3%)" stroke-width="1.5"></path><path d="M1457.87 -95.07L1435.09 79.03" stroke="hsl(156.70000000000005, 58.4%, 56.3%)" stroke-width="1.5"></path><path d="M1457.87 -95.07L1597.1 87.22" stroke="hsl(156.70000000000005, 58.4%, 56.3%)" stroke-width="1.5"></path><path d="M1457.87 -95.07L1428.45 261.74" stroke="hsl(156.70000000000005, 58.4%, 56.3%)" stroke-width="1.5"></path><path d="M1435.09 79.03L1435.09 79.03" stroke="hsl(156.70000000000005, 58.4%, 56.3%)" stroke-width="1.5"></path><path d="M1435.09 79.03L1597.1 87.22" stroke="hsl(156.70000000000005, 58.4%, 56.3%)" stroke-width="1.5"></path><path d="M1435.09 79.03L1561.12 -46.21" stroke="hsl(156.70000000000005, 58.4%, 56.3%)" stroke-width="1.5"></path><path d="M1428.45 261.74L1428.45 261.74" stroke="hsl(156.70000000000005, 58.4%, 56.3%)" stroke-width="1.5"></path><path d="M1428.45 261.74L1567.22 343.94" stroke="hsl(156.70000000000005, 58.4%, 56.3%)" stroke-width="1.5"></path><path d="M1419.12 692.9L1419.12 692.9" stroke="hsl(156.70000000000005, 58.4%, 56.3%)" stroke-width="1.5"></path><path d="M1419.12 692.9L1577.83 653.35" stroke="hsl(156.70000000000005, 58.4%, 56.3%)" stroke-width="1.5"></path><path d="M1419.12 692.9L1283.66 553.88" stroke="hsl(156.70000000000005, 58.4%, 56.3%)" stroke-width="1.5"></path><path d="M1419.12 692.9L1599.01 497.01" stroke="hsl(156.70000000000005, 58.4%, 56.3%)" stroke-width="1.5"></path><path d="M1419.12 692.9L1443.19 407.4" stroke="hsl(156.70000000000005, 58.4%, 56.3%)" stroke-width="1.5"></path><path d="M1419.12 692.9L1115.64 512.96" stroke="hsl(156.70000000000005, 58.4%, 56.3%)" stroke-width="1.5"></path><path d="M1561.12 -46.21L1561.12 -46.21" stroke="hsl(156.70000000000005, 58.4%, 56.3%)" stroke-width="1.5"></path><path d="M1561.12 -46.21L1597.1 87.22" stroke="hsl(156.70000000000005, 58.4%, 56.3%)" stroke-width="1.5"></path><path d="M1561.12 -46.21L1283.29 -61" stroke="hsl(156.70000000000005, 58.4%, 56.3%)" stroke-width="1.5"></path><path d="M1561.12 -46.21L1309.88 90.68" stroke="hsl(156.70000000000005, 58.4%, 56.3%)" stroke-width="1.5"></path><path d="M1561.12 -46.21L1428.45 261.74" stroke="hsl(156.70000000000005, 58.4%, 56.3%)" stroke-width="1.5"></path><path d="M1597.1 87.22L1597.1 87.22" stroke="hsl(156.70000000000005, 58.4%, 56.3%)" stroke-width="1.5"></path><path d="M1597.1 87.22L1428.45 261.74" stroke="hsl(156.70000000000005, 58.4%, 56.3%)" stroke-width="1.5"></path><path d="M1567.22 343.94L1567.22 343.94" stroke="hsl(156.70000000000005, 58.4%, 56.3%)" stroke-width="1.5"></path><path d="M1567.22 343.94L1599.01 497.01" stroke="hsl(156.70000000000005, 58.4%, 56.3%)" stroke-width="1.5"></path><path d="M1567.22 343.94L1597.1 87.22" stroke="hsl(156.70000000000005, 58.4%, 56.3%)" stroke-width="1.5"></path><path d="M1567.22 343.94L1280.21 350.17" stroke="hsl(156.70000000000005, 58.4%, 56.3%)" stroke-width="1.5"></path><path d="M1599.01 497.01L1599.01 497.01" stroke="hsl(156.70000000000005, 58.4%, 56.3%)" stroke-width="1.5"></path><path d="M1599.01 497.01L1577.83 653.35" stroke="hsl(156.70000000000005, 58.4%, 56.3%)" stroke-width="1.5"></path><path d="M1599.01 497.01L1443.19 407.4" stroke="hsl(156.70000000000005, 58.4%, 56.3%)" stroke-width="1.5"></path><path d="M1599.01 497.01L1428.45 261.74" stroke="hsl(156.70000000000005, 58.4%, 56.3%)" stroke-width="1.5"></path><path d="M1577.83 653.35L1577.83 653.35" stroke="hsl(156.70000000000005, 58.4%, 56.3%)" stroke-width="1.5"></path><path d="M1577.83 653.35L1443.19 407.4" stroke="hsl(156.70000000000005, 58.4%, 56.3%)" stroke-width="1.5"></path><path d="M1577.83 653.35L1567.22 343.94" stroke="hsl(156.70000000000005, 58.4%, 56.3%)" stroke-width="1.5"></path><path d="M1577.83 653.35L1283.66 553.88" stroke="hsl(156.70000000000005, 58.4%, 56.3%)" stroke-width="1.5"></path><circle r="25" cx="-106.04" cy="693.95" fill="url(#SvgjsRadialGradient1009)"></circle><circle r="25" cx="506.76" cy="515.19" fill="url(#SvgjsRadialGradient1009)"></circle><circle r="25" cx="828.94" cy="344.06" fill="url(#SvgjsRadialGradient1009)"></circle><circle r="25" cx="1117.84" cy="236.61" fill="url(#SvgjsRadialGradient1009)"></circle><circle r="25" cx="1309.88" cy="90.68" fill="url(#SvgjsRadialGradient1009)"></circle><circle r="25" cx="1283.66" cy="553.88" fill="url(#SvgjsRadialGradient1009)"></circle><circle r="25" cx="1443.19" cy="407.4" fill="url(#SvgjsRadialGradient1009)"></circle><circle r="5" cx="39.32" cy="521.85" fill="#97d7be"></circle><circle r="5" cx="106.25" cy="681.73" fill="#97d7be"></circle><circle r="5" cx="253.71" cy="513.06" fill="#97d7be"></circle><circle r="5" cx="232.45" cy="637.7" fill="#97d7be"></circle><circle r="5" cx="373.71" cy="560.19" fill="#97d7be"></circle><circle r="5" cx="412.22" cy="696.63" fill="#97d7be"></circle><circle r="5" cx="494.66" cy="671.34" fill="#97d7be"></circle><circle r="5" cx="645.09" cy="407.09" fill="#97d7be"></circle><circle r="5" cx="659.6" cy="697.88" fill="#97d7be"></circle><circle r="5" cx="788.22" cy="515.5" fill="#97d7be"></circle><circle r="5" cx="802.02" cy="656.4" fill="#97d7be"></circle><circle r="5" cx="971.74" cy="252.69" fill="#97d7be"></circle><circle r="5" cx="1000.17" cy="402.12" fill="#97d7be"></circle><circle r="5" cx="981.68" cy="521.66" fill="#97d7be"></circle><circle r="5" cx="989.77" cy="682.41" fill="#97d7be"></circle><circle r="5" cx="1139.29" cy="351.28" fill="#97d7be"></circle><circle r="5" cx="1115.64" cy="512.96" fill="#97d7be"></circle><circle r="5" cx="1283.29" cy="-61" fill="#97d7be"></circle><circle r="5" cx="1280.21" cy="350.17" fill="#97d7be"></circle><circle r="5" cx="1312.43" cy="671.44" fill="#97d7be"></circle><circle r="5" cx="1457.87" cy="-95.07" fill="#97d7be"></circle><circle r="5" cx="1435.09" cy="79.03" fill="#97d7be"></circle><circle r="5" cx="1428.45" cy="261.74" fill="#97d7be"></circle><circle r="5" cx="1419.12" cy="692.9" fill="#97d7be"></circle><circle r="5" cx="1561.12" cy="-46.21" fill="#97d7be"></circle><circle r="5" cx="1597.1" cy="87.22" fill="#97d7be"></circle><circle r="5" cx="1567.22" cy="343.94" fill="#97d7be"></circle><circle r="5" cx="1599.01" cy="497.01" fill="#97d7be"></circle><circle r="5" cx="1577.83" cy="653.35" fill="#97d7be"></circle></g><defs><mask id="SvgjsMask1008"><rect width="1440" height="560" fill="#ffffff"></rect></mask><radialGradient id="SvgjsRadialGradient1009"><stop stop-color="#ffffff" offset="0.1"></stop><stop stop-color="rgba(46, 175, 125, 1)" offset="0.2"></stop><stop stop-color="rgba(46, 175, 125, 0)" offset="1"></stop></radialGradient></defs></svg>